<?xml version="1.0" encoding="UTF-8"?>
<svg version="1.1" xmlns="http://www.w3.org/2000/svg" width="42" height="42">
<path d="M0 0 C13.86 0 27.72 0 42 0 C42 13.86 42 27.72 42 42 C28.14 42 14.28 42 0 42 C0 28.14 0 14.28 0 0 Z " fill="#368BF4" transform="translate(0,0)"/>
<path d="M0 0 C1.65 0 3.3 0 5 0 C4.51394287 0.68247803 4.02788574 1.36495605 3.52709961 2.06811523 C0.91135699 7.09009016 1.51913295 12.41316912 1.55395508 17.97485352 C1.56249142 20.06040339 1.53363388 22.14323413 1.50195312 24.22851562 C1.50259766 25.54658203 1.50324219 26.86464844 1.50390625 28.22265625 C1.50205322 29.42672119 1.5002002 30.63078613 1.49829102 31.87133789 C1.78276275 35.03516778 1.78276275 35.03516778 3.60083008 37.39697266 C6.83659755 39.55898031 9.00861728 39.47196946 12.8828125 39.42578125 C13.53829071 39.42249313 14.19376892 39.41920502 14.86911011 39.41581726 C16.24926746 39.40542553 17.62938211 39.38552453 19.00927734 39.35668945 C21.12491788 39.31250172 23.23942323 39.29523448 25.35546875 39.28320312 C31.87516422 39.57527997 31.87516422 39.57527997 38 38 C37.01 37.67 36.02 37.34 35 37 C35 37.66 35 38.32 35 39 C33.06280622 39.05406122 31.12518079 39.09282025 29.1875 39.125 C28.10855469 39.14820313 27.02960937 39.17140625 25.91796875 39.1953125 C23 39 23 39 20 37 C19.8125 33.375 19.8125 33.375 20 30 C23.96 29.34 27.92 28.68 32 28 C31.67 22.39 31.34 16.78 31 11 C28.03 10.67 25.06 10.34 22 10 C21 7 21 7 22 2 C27.28 2 32.56 2 38 2 C37.01 1.34 36.02 0.68 35 0 C37.31 0 39.62 0 42 0 C42 13.86 42 27.72 42 42 C28.14 42 14.28 42 0 42 C0 28.14 0 14.28 0 0 Z " fill="#07ABDF" transform="translate(0,0)"/>
<path d="M0 0 C1.32 0.33 2.64 0.66 4 1 C4.33 1.66 4.66 2.32 5 3 C5.33 2.67 5.66 2.34 6 2 C6 1.34 6 0.68 6 0 C7.32 0.66 8.64 1.32 10 2 C10 2.66 10 3.32 10 4 C10.66 3.67 11.32 3.34 12 3 C11.67 2.01 11.34 1.02 11 0 C14 1 14 1 15 3 C15.66 3 16.32 3 17 3 C16.67 2.01 16.34 1.02 16 0 C17.32 0 18.64 0 20 0 C20.02685095 2.47923801 20.04676547 4.9581884 20.0625 7.4375 C20.07087891 8.14455078 20.07925781 8.85160156 20.08789062 9.58007812 C20.09653588 11.38693559 20.05220011 13.19387603 20 15 C19 16 19 16 17.14233398 16.11352539 C16.35157471 16.10828857 15.56081543 16.10305176 14.74609375 16.09765625 C13.89208984 16.09443359 13.03808594 16.09121094 12.15820312 16.08789062 C11.26037109 16.07951172 10.36253906 16.07113281 9.4375 16.0625 C8.53580078 16.05798828 7.63410156 16.05347656 6.70507812 16.04882812 C4.47002411 16.03700244 2.23500398 16.01906638 0 16 C0 10.72 0 5.44 0 0 Z " fill="#F7FDFD" transform="translate(11,12)"/>
<path d="M0 0 C2.91691525 -0.05401695 5.83282724 -0.09368066 8.75 -0.125 C9.575 -0.14175781 10.4 -0.15851562 11.25 -0.17578125 C12.04921875 -0.18222656 12.8484375 -0.18867187 13.671875 -0.1953125 C14.4050293 -0.20578613 15.13818359 -0.21625977 15.89355469 -0.22705078 C18.29896076 0.03222456 19.91251494 0.80774075 22 2 C18.9020403 3.54897985 15.73783448 2.83239539 12.375 2.5625 C11.66859375 2.51029297 10.9621875 2.45808594 10.234375 2.40429688 C8.48920013 2.27458793 6.74454275 2.13795046 5 2 C5 4.31 5 6.62 5 9 C5.63808594 9.06058594 6.27617187 9.12117187 6.93359375 9.18359375 C7.75988281 9.26738281 8.58617188 9.35117188 9.4375 9.4375 C10.67306641 9.55931641 10.67306641 9.55931641 11.93359375 9.68359375 C14 10 14 10 15 11 C15.07325168 13.86267567 15.09238205 16.700719 15.0625 19.5625 C15.05798828 20.36880859 15.05347656 21.17511719 15.04882812 22.00585938 C15.03700518 24.00393756 15.01906914 26.00197783 15 28 C14.34 27.67 13.68 27.34 13 27 C13.33 22.05 13.66 17.1 14 12 C13.01 12.33 12.02 12.66 11 13 C11.33 13.99 11.66 14.98 12 16 C11.360625 15.835 10.72125 15.67 10.0625 15.5 C7.0919668 14.77987074 7.18921634 14.93692789 4 16 C2.68 14.68 1.36 13.36 0 12 C0.66 13.32 1.32 14.64 2 16 C-1.25666272 15.43850643 -2.95623323 14.62770014 -5 12 C-5.144375 11.360625 -5.28875 10.72125 -5.4375 10.0625 C-6.20471314 7.24938516 -7.93734395 5.99611875 -10 4 C-10 3.34 -10 2.68 -10 2 C-6.7 1.67 -3.4 1.34 0 1 C0 0.67 0 0.34 0 0 Z " fill="#2696E0" transform="translate(17,0)"/>
<path d="M0 0 C1.65 0 3.3 0 5 0 C4.51394287 0.68247803 4.02788574 1.36495605 3.52709961 2.06811523 C0.91135699 7.09009016 1.51913295 12.41316912 1.55395508 17.97485352 C1.56249142 20.06040339 1.53363388 22.14323413 1.50195312 24.22851562 C1.50259766 25.54658203 1.50324219 26.86464844 1.50390625 28.22265625 C1.50205322 29.42672119 1.5002002 30.63078613 1.49829102 31.87133789 C1.7820481 35.03520286 1.7820481 35.03520286 3.60302734 37.39257812 C6.81919018 39.54935304 8.99090849 39.5019671 12.84765625 39.49609375 C13.50076279 39.49754898 14.15386932 39.49900421 14.82676697 39.50050354 C16.20267209 39.49884854 17.57859649 39.48733152 18.9543457 39.46655273 C21.0595554 39.43754058 23.16225355 39.44595972 25.26757812 39.45898438 C26.60678306 39.45274797 27.94598006 39.44435778 29.28515625 39.43359375 C30.50082275 39.42384521 31.71648926 39.41409668 32.96899414 39.40405273 C35.97769657 39.25582449 35.97769657 39.25582449 37.85717773 37.59790039 C41.22590492 32.88772747 40.18597164 27.20850201 40.18530273 21.6237793 C40.18748791 19.57384443 40.20564534 17.52444891 40.22460938 15.47460938 C40.22654297 14.18490234 40.22847656 12.89519531 40.23046875 11.56640625 C40.23457764 10.37990479 40.23868652 9.19340332 40.24291992 7.97094727 C40.22660947 4.8144447 40.22660947 4.8144447 38 2 C37.01 1.34 36.02 0.68 35 0 C37.31 0 39.62 0 42 0 C42 13.86 42 27.72 42 42 C28.14 42 14.28 42 0 42 C0 28.14 0 14.28 0 0 Z " fill="#022444" transform="translate(0,0)"/>
<path d="M0 0 C0.74886475 0.00523682 1.49772949 0.01047363 2.26928711 0.01586914 C3.07817383 0.0190918 3.88706055 0.02231445 4.72045898 0.02563477 C5.5705957 0.03401367 6.42073242 0.04239258 7.29663086 0.05102539 C8.15063477 0.05553711 9.00463867 0.06004883 9.88452148 0.06469727 C12.00108749 0.07652166 14.11761771 0.0944577 16.23413086 0.11352539 C14.91413086 0.44352539 13.59413086 0.77352539 12.23413086 1.11352539 C12.48974409 3.45664669 12.82683858 5.79195942 13.23413086 8.11352539 C15.93596141 9.46444067 18.35221292 9.45210597 21.35913086 9.67602539 C23.00268555 9.80170898 23.00268555 9.80170898 24.67944336 9.92993164 C25.52249023 9.99051758 26.36553711 10.05110352 27.23413086 10.11352539 C27.23413086 9.45352539 27.23413086 8.79352539 27.23413086 8.11352539 C28.55413086 8.44352539 29.87413086 8.77352539 31.23413086 9.11352539 C27.54030063 11.57607888 25.69557183 11.35096177 21.29663086 11.30102539 C20.30433472 11.29026978 20.30433472 11.29026978 19.29199219 11.27929688 C3.03905769 11.0159888 3.03905769 11.0159888 -0.76586914 9.11352539 C-1.43383789 7.30102539 -1.43383789 7.30102539 -1.95336914 5.11352539 C-2.13254883 4.39165039 -2.31172852 3.66977539 -2.49633789 2.92602539 C-2.62975586 2.02883789 -2.62975586 2.02883789 -2.76586914 1.11352539 C-1.76586914 0.11352539 -1.76586914 0.11352539 0 0 Z " fill="#2F91E1" transform="translate(7.765869140625,28.886474609375)"/>
<path d="M0 0 C1.06734375 0.05800781 2.1346875 0.11601563 3.234375 0.17578125 C4.31203125 0.22089844 5.3896875 0.26601562 6.5 0.3125 C7.31984375 0.37050781 8.1396875 0.42851563 8.984375 0.48828125 C9.314375 1.14828125 9.644375 1.80828125 9.984375 2.48828125 C9.21351562 2.54886719 8.44265625 2.60945312 7.6484375 2.671875 C6.64554688 2.75566406 5.64265625 2.83945312 4.609375 2.92578125 C3.11277344 3.04759766 3.11277344 3.04759766 1.5859375 3.171875 C-0.99490113 3.33793751 -0.99490113 3.33793751 -3.015625 4.48828125 C-3.06517211 8.54504617 -3.101414 12.60169319 -3.12548828 16.65869141 C-3.13552753 18.0379544 -3.14916177 19.41719621 -3.16650391 20.79638672 C-3.19084254 22.78213265 -3.20105755 24.76803575 -3.2109375 26.75390625 C-3.22141113 27.94790039 -3.23188477 29.14189453 -3.24267578 30.37207031 C-3.02432514 33.36887421 -2.68596767 35.02417767 -1.015625 37.48828125 C1.68620555 38.83919653 4.10245706 38.82686183 7.109375 39.05078125 C8.20507812 39.13457031 9.30078125 39.21835937 10.4296875 39.3046875 C11.69425781 39.39556641 11.69425781 39.39556641 12.984375 39.48828125 C12.984375 39.81828125 12.984375 40.14828125 12.984375 40.48828125 C10.58662755 40.6240028 8.19662255 40.72264993 5.796875 40.80078125 C4.78657227 40.86362305 4.78657227 40.86362305 3.75585938 40.92773438 C0.03118099 41.01858019 -1.74879878 40.69618053 -4.71191406 38.38745117 C-7.52828228 34.84311325 -7.64724101 33.09341555 -7.64453125 28.61328125 C-7.64646484 27.2984375 -7.64839844 25.98359375 -7.65039062 24.62890625 C-7.63790283 23.94892578 -7.62541504 23.26894531 -7.61254883 22.56835938 C-7.5782099 20.49341118 -7.59190511 18.42272216 -7.61132812 16.34765625 C-7.53750336 6.30748886 -7.53750336 6.30748886 -5.16870117 2.58911133 C-3.015625 0.48828125 -3.015625 0.48828125 0 0 Z " fill="#4782D9" transform="translate(8.015625,-0.48828125)"/>
<path d="M0 0 C1.32 0.33 2.64 0.66 4 1 C4.33 1.66 4.66 2.32 5 3 C5.33 2.67 5.66 2.34 6 2 C6 1.34 6 0.68 6 0 C7.32 0.66 8.64 1.32 10 2 C10 2.66 10 3.32 10 4 C10.66 3.67 11.32 3.34 12 3 C11.67 2.01 11.34 1.02 11 0 C14 1 14 1 15 3 C15.66 3 16.32 3 17 3 C16.67 2.01 16.34 1.02 16 0 C17.32 0 18.64 0 20 0 C20.02685095 2.47923801 20.04676547 4.9581884 20.0625 7.4375 C20.07087891 8.14455078 20.07925781 8.85160156 20.08789062 9.58007812 C20.09653588 11.38693559 20.05220011 13.19387603 20 15 C19 16 19 16 17.14233398 16.11352539 C16.35157471 16.10828857 15.56081543 16.10305176 14.74609375 16.09765625 C13.89208984 16.09443359 13.03808594 16.09121094 12.15820312 16.08789062 C11.26037109 16.07951172 10.36253906 16.07113281 9.4375 16.0625 C8.53580078 16.05798828 7.63410156 16.05347656 6.70507812 16.04882812 C4.47002411 16.03700244 2.23500398 16.01906638 0 16 C0 10.72 0 5.44 0 0 Z M2 5 C1.938125 6.27875 1.87625 7.5575 1.8125 8.875 C1.77769531 9.59429688 1.74289062 10.31359375 1.70703125 11.0546875 C1.80371094 11.69664063 1.90039062 12.33859375 2 13 C5.7367843 15.49118953 7.74451819 15.2065226 12.1875 15.125 C13.45980469 15.10695313 14.73210938 15.08890625 16.04296875 15.0703125 C17.01878906 15.04710937 17.99460937 15.02390625 19 15 C19.02689216 13.52093108 19.04634621 12.04172517 19.0625 10.5625 C19.07410156 9.73878906 19.08570312 8.91507813 19.09765625 8.06640625 C19.23267348 6.00836062 19.23267348 6.00836062 18 5 C15.30345146 4.92680379 12.63308542 4.90757463 9.9375 4.9375 C8.79958008 4.94426758 8.79958008 4.94426758 7.63867188 4.95117188 C5.75908129 4.9629932 3.87953101 4.98092922 2 5 Z " fill="#D1F8FD" transform="translate(11,12)"/>
<path d="M0 0 C2.79046293 2.79046293 2.2581991 4.53155006 2.265625 8.43359375 C2.26949219 10.3662207 2.26949219 10.3662207 2.2734375 12.33789062 C2.26715332 13.34686401 2.26715332 13.34686401 2.26074219 14.3762207 C2.25005865 16.42624649 2.26062963 18.47539247 2.2734375 20.52539062 C2.27085938 21.81509766 2.26828125 23.10480469 2.265625 24.43359375 C2.26336914 25.62009521 2.26111328 26.80659668 2.25878906 28.02905273 C2 31 2 31 0 34 C-1.32 34 -2.64 34 -4 34 C-4 34.66 -4 35.32 -4 36 C-7.96 36 -11.92 36 -16 36 C-16 35.67 -16 35.34 -16 35 C-13.36 34.34 -10.72 33.68 -8 33 C-7.67 31.68 -7.34 30.36 -7 29 C-5.68 29.66 -4.36 30.32 -3 31 C-3 31.66 -3 32.32 -3 33 C-2.34 33 -1.68 33 -1 33 C-0.67 22.11 -0.34 11.22 0 0 Z " fill="#1DA6CB" transform="translate(39,3)"/>
<path d="M0 0 C3.96 0 7.92 0 12 0 C12.66 1.32 13.32 2.64 14 4 C12.68 4.33 11.36 4.66 10 5 C9.67 6.32 9.34 7.64 9 9 C6.03 8.67 3.06 8.34 0 8 C-1 5 -1 5 0 0 Z " fill="#03A7E4" transform="translate(22,2)"/>
<path d="M0 0 C0.33 0 0.66 0 1 0 C1 5.28 1 10.56 1 16 C7.27 16 13.54 16 20 16 C20 16.33 20 16.66 20 17 C16.77138267 17.19789024 13.54210273 17.38146345 10.3125 17.5625 C9.40048828 17.61857422 8.48847656 17.67464844 7.54882812 17.73242188 C6.21948242 17.80493164 6.21948242 17.80493164 4.86328125 17.87890625 C4.05157471 17.9260376 3.23986816 17.97316895 2.40356445 18.02172852 C-0.1789485 17.99838228 -2.48849909 17.5804792 -5 17 C-5.20086443 13.28400809 -5.1519437 12.22791555 -3 9 C-2.4172881 7.45233858 -1.87735813 5.88807778 -1.375 4.3125 C-1.11460938 3.50425781 -0.85421875 2.69601563 -0.5859375 1.86328125 C-0.39257812 1.24839844 -0.19921875 0.63351562 0 0 Z " fill="#3D8DD8" transform="translate(10,12)"/>
<path d="M0 0 C0.63808594 0.08378906 1.27617187 0.16757813 1.93359375 0.25390625 C3.17302734 0.40666016 3.17302734 0.40666016 4.4375 0.5625 C5.26121094 0.66691406 6.08492187 0.77132813 6.93359375 0.87890625 C7.61550781 0.91886719 8.29742187 0.95882813 9 1 C9.33 0.67 9.66 0.34 10 0 C11.49738124 -0.0979057 12.99942892 -0.12974864 14.5 -0.125 C15.3146875 -0.12757812 16.129375 -0.13015625 16.96875 -0.1328125 C19 0 19 0 20 1 C20.07325168 3.86267567 20.09238205 6.700719 20.0625 9.5625 C20.05798828 10.36880859 20.05347656 11.17511719 20.04882812 12.00585938 C20.03700518 14.00393756 20.01906914 16.00197783 20 18 C19.34 17.67 18.68 17.34 18 17 C18.33 12.05 18.66 7.1 19 2 C18.01 2.33 17.02 2.66 16 3 C16.33 3.99 16.66 4.98 17 6 C16.360625 5.835 15.72125 5.67 15.0625 5.5 C12.0919668 4.77987074 12.18921634 4.93692789 9 6 C7.68 4.68 6.36 3.36 5 2 C5.66 3.32 6.32 4.64 7 6 C3.75728494 5.4409112 2.06942576 4.5867822 0 2 C0 1.34 0 0.68 0 0 Z " fill="#2E9CC1" transform="translate(12,10)"/>
<path d="M0 0 C1.485 0.99 1.485 0.99 3 2 C5.722865 2.18385252 8.34081497 2.25611484 11.0625 2.23046875 C11.85019775 2.23001053 12.63789551 2.22955231 13.44946289 2.2290802 C15.11378487 2.22606109 16.7781041 2.21818496 18.44238281 2.20581055 C20.99033619 2.18756919 23.53792567 2.18530083 26.0859375 2.18554688 C27.70312814 2.18063082 29.32031632 2.17480212 30.9375 2.16796875 C31.70006104 2.16685593 32.46262207 2.1657431 33.24829102 2.16459656 C36.42612123 2.13607514 38.96342021 2.01219326 42 1 C42 1.99 42 2.98 42 4 C28.14 4 14.28 4 0 4 C0 2.68 0 1.36 0 0 Z " fill="#071A2E" transform="translate(0,38)"/>
<path d="M0 0 C1.65 0 3.3 0 5 0 C4.51104248 0.68175293 4.02208496 1.36350586 3.51831055 2.06591797 C1.67702238 5.62414296 1.65527775 7.95418844 1.70703125 11.9453125 C1.71127609 12.59700409 1.71552094 13.24869568 1.71989441 13.9201355 C1.7365849 15.98885711 1.77417803 18.05657745 1.8125 20.125 C1.82756286 21.52212111 1.84124846 22.91925779 1.85351562 24.31640625 C1.87795733 26.87287428 1.91202942 29.42853013 1.95239258 31.98486328 C1.98404824 33.98972175 2 35.99489163 2 38 C0 36 0 36 -0.22705078 32.46826172 C-0.22673363 30.95536669 -0.21540633 29.44244912 -0.1953125 27.9296875 C-0.1924826 27.13345978 -0.18965271 26.33723206 -0.18673706 25.51687622 C-0.1755264 22.96943237 -0.15042062 20.42233789 -0.125 17.875 C-0.11497133 16.14974465 -0.10584528 14.42448381 -0.09765625 12.69921875 C-0.07558422 8.46601086 -0.04104867 4.2330647 0 0 Z " fill="#041E55" transform="translate(0,0)"/>
<path d="M0 0 C2.31 0 4.62 0 7 0 C7 11.88 7 23.76 7 36 C6.34 36 5.68 36 5 36 C5.01571045 34.61494263 5.01571045 34.61494263 5.03173828 33.2019043 C5.0658319 29.77463282 5.09090446 26.34754167 5.10986328 22.92016602 C5.11991821 21.43706417 5.13356404 19.95398212 5.15087891 18.47094727 C5.17515006 16.33865469 5.18648799 14.20662431 5.1953125 12.07421875 C5.21102295 10.14968872 5.21102295 10.14968872 5.22705078 8.1862793 C5.2526056 4.84357256 5.2526056 4.84357256 3 2 C2.01 1.34 1.02 0.68 0 0 Z " fill="#023349" transform="translate(35,0)"/>
<path d="M0 0 C1.32 0 2.64 0 4 0 C4.33 2.64 4.66 5.28 5 8 C2.03 8 -0.94 8 -4 8 C-2.66666667 5.33333333 -1.33333333 2.66666667 0 0 Z " fill="#2099EC" transform="translate(16,30)"/>
<path d="M0 0 C3 1 3 1 4 3 C4.66 3 5.32 3 6 3 C5.67 2.01 5.34 1.02 5 0 C6.32 0 7.64 0 9 0 C9 4.95 9 9.9 9 15 C8.67 15 8.34 15 8 15 C7.67 12.03 7.34 9.06 7 6 C4.69 5.67 2.38 5.34 0 5 C0.33 4.34 0.66 3.68 1 3 C0.67 2.01 0.34 1.02 0 0 Z " fill="#BEFCFE" transform="translate(22,12)"/>
<path d="M0 0 C1.65 0 3.3 0 5 0 C5 2.97 5 5.94 5 9 C4.01 9.495 4.01 9.495 3 10 C3 9.34 3 8.68 3 8 C2.01 8 1.02 8 0 8 C0 5.36 0 2.72 0 0 Z " fill="#179DEA" transform="translate(17,2)"/>
<path d="M0 0 C2.8203125 -0.29296875 2.8203125 -0.29296875 6.125 -0.1875 C7.76855469 -0.14689453 7.76855469 -0.14689453 9.4453125 -0.10546875 C10.28835938 -0.07066406 11.13140625 -0.03585937 12 0 C12.33 0.66 12.66 1.32 13 2 C8.05 2.33 3.1 2.66 -2 3 C-1.34 2.01 -0.68 1.02 0 0 Z " fill="#3A85D1" transform="translate(5,0)"/>
<path d="M0 0 C2.64 0.33 5.28 0.66 8 1 C7.67 1.66 7.34 2.32 7 3 C6.34 2.67 5.68 2.34 5 2 C5.66 3.32 6.32 4.64 7 6 C3.75728494 5.4409112 2.06942576 4.5867822 0 2 C0 1.34 0 0.68 0 0 Z " fill="#4796C8" transform="translate(12,10)"/>
</svg>
